# xmcd CD database file
#
# Track frame offsets:
#	150
#	13690
#	30715
#	88016
#	101433
#	116845
#	129917
#	145939
#	158772
#	174940
#	188635
#	204531
#	219018
#	233487
#	269531
#
# Disc length: 3801 seconds
#
# Revision: 0
# Processed by: cddbd v1.5.2PL0 Copyright (c) Steve Scherf et al.
# Submitted via: Feurio! 1.68 - http://www.feurio.com
#
DISCID=bf0ed70f
DTITLE=OOBillie Holliday - As Time Goes By
DYEAR=1900
DGENRE=Blues
TTITLE0=Jeepers Creepers
TTITLE1=Billy Holiday - Moonlight In Vermont
TTITLE2=Billie Holiday - Live   " Charlie Parker
TTITLE3=Billy Holliday - So Easy To Love   " Cole Porter
TTITLE4=Billie Holiday - Stormy Blues   "  B.B. King
TTITLE5=Lover Man   " Ella Fitzgerald
TTITLE6=Billie Holiday - Phantoms Of Sunday   " Gitane DeMone
TTITLE7=Billie Holiday - I Only Have Eyes For You
TTITLE8=Stormy Weather
TTITLE9=Billie Holiday - The Way You Look Tonight
TTITLE10=Billie Holiday - Summertime   " Louis Armstrong
TTITLE11=Billy Holliday - Someone To Watch Over Me
TTITLE12=Billie Holiday - As Time Goes By
TTITLE13=Billie Holiday - Fine And Mellow   " Lester Young
TTITLE14=Billie Holiday - Blue Moon
EXTD=
EXTT0=
EXTT1=
EXTT2=
EXTT3=
EXTT4=
EXTT5=
EXTT6=
EXTT7=
EXTT8=
EXTT9=
EXTT10=
EXTT11=
EXTT12=
EXTT13=
EXTT14=
PLAYORDER=
